<svg width="70" height="108" viewBox="0 0 70 108" fill="none" xmlns="http://www.w3.org/2000/svg">
<g clip-path="url(#clip0)">
<g clip-path="url(#clip1)">
<path d="M53.63 7.51C53.47 4.44 50.93 2 47.83 2C44.62 2 42.01 4.61 42.01 7.82C42.01 11.03 44.62 13.64 47.83 13.64C48.98 13.64 50.04 13.3 50.94 12.73C58.01 16.99 62.12 23.01 62.14 29.44C62.16 35.9 58 48.37 31.02 61.28C31.02 49.88 31.01 20.35 31.01 9.58C31.01 7 28.91 4.9 26.32 4.9H10.08C8.81999 4.9 7.63998 5.39 6.74998 6.28C5.86998 7.17 5.37998 8.35 5.38998 9.61C5.42998 17.3 5.39998 43 5.39998 43.26V52.15C3.65998 53.16 2.48999 55.03 2.48999 57.19C2.48999 60.4 5.09998 63.01 8.30998 63.01C11.52 63.01 14.13 60.4 14.13 57.19C14.13 55.05 12.98 53.19 11.26 52.18V43.25C11.26 43 11.28 19.6 11.25 10.76H25.15C25.15 23.47 25.16 55.73 25.16 63.93L5.37999 72.48V101.36C5.37999 103.95 7.47999 106.05 10.07 106.05H26.33C28.92 106.05 31.02 103.95 31.02 101.36V67.75C45.63 61.06 68.05 47.79 68 29.42C67.97 20.77 62.69 12.84 53.63 7.51ZM25.16 100.19H11.24V76.34L25.16 70.32V100.19Z" fill="white"/>
</g>
</g>
<defs>
<clipPath id="clip0">
<rect width="70" height="108" fill="white"/>
</clipPath>
<clipPath id="clip1">
<rect width="291" height="120.13" fill="white" transform="translate(-223 2)"/>
</clipPath>
</defs>
</svg>
